<svg xmlns="http://www.w3.org/2000/svg" width="900" height="250" viewBox="0 0 900 250" role="img" aria-label="Activity overview">
<style>text{font-family:-apple-system,BlinkMacSystemFont,'Segoe UI',Helvetica,Arial,sans-serif;font-variant-numeric:tabular-nums;}</style>
<rect x="0.5" y="0.5" width="899" height="249" rx="8" fill="#161b22" stroke="#30363d"/>
<text x="20" y="30" font-size="15" font-weight="600" fill="#e6edf3">Activity overview</text>
<text x="20" y="100" font-size="58" font-weight="700" fill="#e6edf3" letter-spacing="-1.5">844</text><text x="20" y="122" font-size="12" fill="#9aa4b2">commits in the past 12 months</text><defs><linearGradient id="sp" x1="0" y1="0" x2="0" y2="1"><stop offset="0" stop-color="#3987e5" stop-opacity="0.35"/><stop offset="1" stop-color="#3987e5" stop-opacity="0"/></linearGradient></defs><polygon points="300.0,122 300.0,120.2 311.2,114.0 322.3,121.1 333.5,121.6 344.6,120.2 355.8,117.5 366.9,119.3 378.1,119.8 389.2,118.4 400.4,118.4 411.5,118.4 422.7,112.6 433.8,117.1 445.0,120.2 456.2,114.4 467.3,101.9 478.5,114.4 489.6,122.0 500.8,120.2 511.9,118.0 523.1,120.7 534.2,120.7 545.4,120.7 556.5,118.4 567.7,120.7 578.8,121.6 590.0,120.7 601.2,120.7 612.3,117.1 623.5,122.0 634.6,114.9 645.8,116.6 656.9,114.9 668.1,107.7 679.2,108.2 690.4,103.3 701.5,109.1 712.7,122.0 723.8,120.2 735.0,112.2 746.2,94.8 757.3,118.0 768.5,116.2 779.6,110.9 790.8,121.6 801.9,118.9 813.1,121.6 824.2,107.7 835.4,56.0 846.5,109.1 857.7,96.6 868.8,96.6 880.0,120.2 880.0,122" fill="url(#sp)"/><polyline points="300.0,120.2 311.2,114.0 322.3,121.1 333.5,121.6 344.6,120.2 355.8,117.5 366.9,119.3 378.1,119.8 389.2,118.4 400.4,118.4 411.5,118.4 422.7,112.6 433.8,117.1 445.0,120.2 456.2,114.4 467.3,101.9 478.5,114.4 489.6,122.0 500.8,120.2 511.9,118.0 523.1,120.7 534.2,120.7 545.4,120.7 556.5,118.4 567.7,120.7 578.8,121.6 590.0,120.7 601.2,120.7 612.3,117.1 623.5,122.0 634.6,114.9 645.8,116.6 656.9,114.9 668.1,107.7 679.2,108.2 690.4,103.3 701.5,109.1 712.7,122.0 723.8,120.2 735.0,112.2 746.2,94.8 757.3,118.0 768.5,116.2 779.6,110.9 790.8,121.6 801.9,118.9 813.1,121.6 824.2,107.7 835.4,56.0 846.5,109.1 857.7,96.6 868.8,96.6 880.0,120.2" fill="none" stroke="#3987e5" stroke-width="2" stroke-linejoin="round" stroke-linecap="round"/><circle cx="835.4" cy="56.0" r="4" fill="#3987e5" stroke="#161b22" stroke-width="2"/><text x="835.4" y="47.0" text-anchor="middle" font-size="10" fill="#9aa4b2">peak week · 148</text><text x="880" y="136" text-anchor="end" font-size="9" fill="#6e7681">weekly contributions · past 12 months</text><line x1="20" y1="150" x2="880" y2="150" stroke="#30363d"/><text x="20" y="196" font-size="24" font-weight="700" fill="#e6edf3">888</text><text x="20" y="213" font-size="10.5" fill="#9aa4b2">contributions</text><line x1="149" y1="172" x2="149" y2="214" stroke="#30363d"/><text x="163" y="196" font-size="24" font-weight="700" fill="#e6edf3">171</text><text x="163" y="213" font-size="10.5" fill="#9aa4b2">active days</text><line x1="293" y1="172" x2="293" y2="214" stroke="#30363d"/><text x="307" y="196" font-size="24" font-weight="700" fill="#e6edf3">2d</text><text x="307" y="213" font-size="10.5" fill="#9aa4b2">current streak</text><line x1="436" y1="172" x2="436" y2="214" stroke="#30363d"/><text x="450" y="196" font-size="24" font-weight="700" fill="#e6edf3">14d</text><text x="450" y="213" font-size="10.5" fill="#9aa4b2">best streak</text><line x1="579" y1="172" x2="579" y2="214" stroke="#30363d"/><text x="593" y="196" font-size="24" font-weight="700" fill="#e6edf3">62</text><text x="593" y="213" font-size="10.5" fill="#9aa4b2">busiest day</text><line x1="723" y1="172" x2="723" y2="214" stroke="#30363d"/><text x="737" y="196" font-size="24" font-weight="700" fill="#e6edf3">106</text><text x="737" y="213" font-size="10.5" fill="#9aa4b2">repositories</text>
<text x="884" y="238" text-anchor="end" font-size="10" fill="#6e7681">9 followers · 8 yrs on GitHub</text>
</svg>